# xmcd
# 
# Track frame offsets:
#     150
#     10375
#     22602
#     31323
#     45125
#     55359
#     70343
#     89814
#     103587
#     115102
#     129417
#     141033
#     148985
#     160450
#     168100
#     182297
#     191470
#     201898
#     212441
#     223308
#     238119
#     250567
#     259747
#     269500
#     281364
#     291678
#     305406
#     318934
#     331004
#     342192
# 
# Disc length: 4669
# 
# Revision: 1
# Processed by: cddbd v1.5.2PL0 Copyright (c) Steve Scherf et al.
# Submitted via: BonkEnc v1.0
# 
DISCID=b8123b1e
DTITLE=Rangers - To nejlepsi CD1
DYEAR=2004
DGENRE=Country
TTITLE0=Ta zem je tva zem
TTITLE1=Zvednete kotvy
TTITLE2=Oh, Shenando
TTITLE3=Colorado
TTITLE4=Pojd ven
TTITLE5=Smutny psani
TTITLE6=Balicek karet
TTITLE7=Tricentova opera
TTITLE8=O.K.
TTITLE9=Tulak
TTITLE10=Neplac mala
TTITLE11=Plavci
TTITLE12=Mam radost
TTITLE13=Modry mesic
TTITLE14=Julianne
TTITLE15=Kral silnic
TTITLE16=Vim, vim
TTITLE17=Napis kridou
TTITLE18=Laska je vec kouzelna
TTITLE19=Tvym snum zlym
TTITLE20=Kdo ma pravo
TTITLE21=Jehly, spicky, sochory a kuly
TTITLE22=Tece voda
TTITLE23=Sest svicek
TTITLE24=900 mil
TTITLE25=Vina vina
TTITLE26=Nos pro trable
TTITLE27=O malo vic
TTITLE28=Skatule
TTITLE29=Zlate zvony
EXTD=YEAR: 2004
EXTT0=
EXTT1=
EXTT2=
EXTT3=
EXTT4=
EXTT5=
EXTT6=
EXTT7=
EXTT8=
EXTT9=
EXTT10=
EXTT11=
EXTT12=
EXTT13=
EXTT14=
EXTT15=
EXTT16=
EXTT17=
EXTT18=
EXTT19=
EXTT20=
EXTT21=
EXTT22=
EXTT23=
EXTT24=
EXTT25=
EXTT26=
EXTT27=
EXTT28=
EXTT29=
PLAYORDER=
